REM MD5 1d3d5092bc73321a7275b5f012fb7c76
FILE "Jouki Kikansha Unten Simulation - SL de Ikou! (Japan).bin" BINARY
  TRACK 01 MODE2/2352
    INDEX 01 00:00:00
  TRACK 02 AUDIO
    INDEX 00 03:19:55
    INDEX 01 03:21:55
  TRACK 03 AUDIO
    INDEX 00 04:36:30
    INDEX 01 04:38:30
REM LEADOUT 07:58:30
